0
SECTION
2
HEADER
9
$INSUNITS
70
1
9
$ACADVER
1
AC1014
9
$HANDSEED
5
FFFF
0
ENDSEC
0
SECTION
2
TABLES
0
TABLE
2
VPORT
5
8
100
AcDbSymbolTable
0
ENDTAB
0
TABLE
2
LTYPE
5
5
100
AcDbSymbolTable
0
LTYPE
5
14
100
AcDbSymbolTableRecord
100
AcDbLinetypeTableRecord
2
BYBLOCK
70
0
0
LTYPE
5
15
100
AcDbSymbolTableRecord
100
AcDbLinetypeTableRecord
2
BYLAYER
70
0
0
LTYPE
5
16
100
AcDbSymbolTableRecord
100
AcDbLinetypeTableRecord
2
DASHED
70
0
3
Dashed __ __ __ __ __ __ __ __ __ __ __ __ __ _
72
65
73
2
40
0.75
49
0.5
74
0
49
-0.25
74
0
0
ENDTAB
0
TABLE
2
LAYER
5
2
100
AcDbSymbolTable
70
2
0
LAYER
5
50
100
AcDbSymbolTableRecord
100
AcDbLayerTableRecord
2
0
70
0
62
7
6
CONTINUOUS
0
ENDTAB
0
TABLE
2
STYLE
5
3
100
AcDbSymbolTable
70
1
0
STYLE
5
11
100
AcDbSymbolTableRecord
100
AcDbTextStyleTableRecord
2
STANDARD
70
0
0
ENDTAB
0
TABLE
2
VIEW
5
6
100
AcDbSymbolTable
70
0
0
ENDTAB
0
TABLE
2
UCS
5
7
100
AcDbSymbolTable
70
0
0
ENDTAB
0
TABLE
2
APPID
5
9
100
AcDbSymbolTable
70
2
0
APPID
5
12
100
AcDbSymbolTableRecord
100
AcDbRegAppTableRecord
2
ACAD
70
0
0
ENDTAB
0
TABLE
2
DIMSTYLE
5
A
100
AcDbSymbolTable
70
1
0
ENDTAB
0
TABLE
2
BLOCK_RECORD
5
1
100
AcDbSymbolTable
70
1
0
BLOCK_RECORD
5
1F
100
AcDbSymbolTableRecord
100
AcDbBlockTableRecord
2
*MODEL_SPACE
0
BLOCK_RECORD
5
1B
100
AcDbSymbolTableRecord
100
AcDbBlockTableRecord
2
*PAPER_SPACE
0
ENDTAB
0
ENDSEC
0
SECTION
2
BLOCKS
0
BLOCK
5
20
100
AcDbEntity
100
AcDbBlockBegin
2
*MODEL_SPACE
0
ENDBLK
5
21
100
AcDbEntity
100
AcDbBlockEnd
0
BLOCK
5
1C
100
AcDbEntity
100
AcDbBlockBegin
2
*PAPER_SPACE
0
ENDBLK
5
1D
100
AcDbEntity
100
AcDbBlockEnd
0
ENDSEC
0
SECTION
2
ENTITIES
0
LWPOLYLINE
5
100
100
AcDbEntity
8
0
100
AcDbPolyline
90
26
70
1
43
0.0
10
3.8353028610793674
20
-0.020857146271452232
42
0.37812701469490334
10
3.7112743999199767
20
-0.13030269924066837
10
3.4278155408919879
20
-2.3905544470307851
42
-0.37812701469490423
10
3.3037870797325977
20
-2.5000000000000009
10
2.8962129202674025
20
-2.5000000000000009
42
-0.37812701469490179
10
2.7721844591080118
20
-2.3905544470307851
10
2.4887256000800231
20
-0.13030269924066845
42
0.37812701469490351
10
2.3646971389206324
20
-0.020857146271452357
10
1.8611176162900633
20
-0.020857146271452232
42
0.43936500923746069
10
1.7365699973846844
20
-0.15648214627147869
10
1.9795476189060257
20
-3.0046971305255652
42
-0.021278882851655304
10
1.9800000000006468
20
-3.0153221305255915
10
1.9800000000006466
20
-3.6350000000006477
42
0.41421356237309503
10
2.105000000000647
20
-3.7600000000006473
10
2.605000000000647
20
-3.7600000000006473
42
0.41421356237309503
10
2.730000000000647
20
-3.6350000000006477
10
2.730000000000647
20
-3.0100000000006482
10
3.4699999999993523
20
-3.0100000000006477
10
3.4699999999993523
20
-3.6350000000006482
42
0.41421356237309503
10
3.5949999999993527
20
-3.7600000000006477
10
4.0949999999993532
20
-3.7600000000006473
42
0.41421356237309503
10
4.2199999999993523
20
-3.6350000000006477
10
4.2199999999993523
20
-3.0153221305255915
42
-0.021278882851658527
10
4.220452381093974
20
-3.0046971305255648
10
4.4634300026153158
20
-0.1564821462714788
42
0.43936500923746108
10
4.3388823837099375
20
-0.02085714627145226
0
LWPOLYLINE
5
101
100
AcDbEntity
8
0
100
AcDbPolyline
90
16
70
1
43
0.0
10
-1.5000000000000007
20
-6.3250000000000055
10
-1.5
20
-0.1250000000000038
42
-0.41421356237309465
10
-1.3750000000000002
20
-3.8440325635134435e-15
10
1.3749999999999998
20
-2.4477358023231794e-15
42
-0.41421356237309503
10
1.4999999999999998
20
-0.12500000000000239
10
1.4999999999999987
20
-6.3250000000000055
42
-0.41421356237309503
10
1.3749999999999991
20
-6.4500000000000046
10
0.67784220410545115
20
-6.4500000000000046
42
-0.31050825346283284
10
0.56114465079330078
20
-6.3697959936931667
10
0.43078749412411393
20
-6.030203990349694
42
0.31050825346282929
10
0.31408994081196373
20
-5.9499999840428561
10
-0.31408994081196545
20
-5.9499999840428561
42
0.31050825346283201
10
-0.4307874941241156
20
-6.030203990349694
10
-0.56114465079330289
20
-6.3697959936931685
42
-0.31050825346282973
10
-0.67784220410545248
20
-6.4500000000000046
10
-1.3750000000000009
20
-6.4500000000000046
42
-0.41421356237309503
0
LWPOLYLINE
5
102
100
AcDbEntity
8
0
100
AcDbPolyline
90
4
70
1
43
0.0
10
-0.3650000000000006
20
-5.5650000000000039
10
-1.1250000000000007
20
-5.5650000000000039
10
-1.1250000000000007
20
-5.7000000000000046
10
-0.36500000000000077
20
-5.7000000000000046
0
LWPOLYLINE
5
103
100
AcDbEntity
8
0
100
AcDbPolyline
90
4
70
1
43
0.0
10
0.36499999999999783
20
-5.5650000000000048
10
0.36499999999999783
20
-5.7000000000000046
10
1.124999999999998
20
-5.7000000000000046
10
1.1249999999999978
20
-5.5650000000000039
0
LWPOLYLINE
5
104
100
AcDbEntity
8
0
100
AcDbPolyline
90
15
70
1
43
0.0
10
-0.5069416446948628
20
-2.5033731629529377
10
-0.45891973118143931
20
-2.6283048738644865
10
-0.33811491446232372
20
-2.6283048738644856
10
-0.55833999707004356
20
-2.0783049384440071
10
-0.67576837492740194
20
-2.0783049384440062
10
-0.88999070661274604
20
-2.6283048738644865
10
-0.77218719495563204
20
-2.6283048738644856
10
-0.72679154657003586
20
-2.5033731629529377
10
-0.66761691016475189
20
-2.5033731629529377
10
-0.66761691016475189
20
-2.4107060563845937
10
-0.6926510385640976
20
-2.4107060563845937
10
-0.61836722469705463
20
-2.2066131820828945
10
-0.54258278176540597
20
-2.4107060563845937
10
-0.5676169101647518
20
-2.4107060563845937
10
-0.5676169101647518
20
-2.5033731629529377
0
LWPOLYLINE
5
105
100
AcDbEntity
8
0
100
AcDbPolyline
90
12
70
1
43
0.0
10
0.40414501222099658
20
-2.2932775846616544
10
0.40414501222099658
20
-2.1713471318793163
10
0.70090480535987598
20
-2.1713471318793163
10
0.70090480535987598
20
-2.0783049384440071
10
0.29309451908576983
20
-2.0783049384440062
10
0.29309451908576956
20
-2.6283048738644865
10
0.71140949040885781
20
-2.628304873864487
10
0.71140949040885781
20
-2.535637767296143
10
0.40414501222099647
20
-2.535637767296143
10
0.40414501222099658
20
-2.3859446912299984
10
0.68027052212887662
20
-2.3859446912299984
10
0.68027052212887673
20
-2.2932775846616544
0
SPLINE
5
106
100
AcDbEntity
8
0
100
AcDbSpline
70
0
71
3
72
9
73
5
74
0
42
0.000000001
43
0.0000000001
44
0.0000000001
40
-0.19132829191513939
40
-0.19132829191513939
40
-0.19132829191513939
40
-0.19132829191513939
40
-0.10043288276862919
40
0
40
0
40
0
40
0
10
1.1997802881743944
20
-2.4317154264825596
30
0
10
1.1912219761997713
20
-2.4233514122550717
30
0
10
1.1732073456793009
20
-2.405745764503163
30
0
10
1.1517610862142489
20
-2.3925148393768123
30
0
10
1.1405034220124772
20
-2.3855696043630346
30
0
0
SPLINE
5
107
100
AcDbEntity
8
0
100
AcDbSpline
70
0
71
3
72
9
73
5
74
0
42
0.000000001
43
0.0000000001
44
0.0000000001
40
-0.30950536077342861
40
-0.30950536077342861
40
-0.30950536077342861
40
-0.30950536077342861
40
-0.14215494427389516
40
0
40
0
40
0
40
0
10
1.1405034220124772
20
-2.3855696043630346
30
0
10
1.1625357745781721
20
-2.3814564139142926
30
0
10
1.2032833948839252
20
-2.3738492951487937
30
0
10
1.2348187366925811
20
-2.3471736585415783
30
0
10
1.2493028307524232
20
-2.3349216134529476
30
0
0
SPLINE
5
108
100
AcDbEntity
8
0
100
AcDbSpline
70
0
71
3
72
9
73
5
74
0
42
0.000000001
43
0.0000000001
44
0.0000000001
40
-0.28106493128632465
40
-0.28106493128632465
40
-0.28106493128632465
40
-0.28106493128632465
40
-0.14550158148728615
40
0
40
0
40
0
40
0
10
1.2493028307524232
20
-2.3349216134529476
30
0
10
1.2599133786375587
20
-2.3201824053518871
30
0
10
1.2819123401317003
20
-2.2896234488324412
30
0
10
1.2844042950567276
20
-2.2519847711927525
30
0
10
1.28569432928806
20
-2.2324999955695506
30
0
0
SPLINE
5
109
100
AcDbEntity
8
0
100
AcDbSpline
70
0
71
3
72
9
73
5
74
0
42
0.000000001
43
0.0000000001
44
0.0000000001
40
-0.23080326445591667
40
-0.23080326445591667
40
-0.23080326445591667
40
-0.23080326445591667
40
-0.11284078606110814
40
0
40
0
40
0
40
0
10
1.28569432928806
20
-2.2324999955695506
30
0
10
1.2847856092335337
20
-2.2168428221995482
30
0
10
1.2830076239121391
20
-2.1862082782740293
30
0
10
1.2686856115664109
20
-2.1590925824131428
30
0
10
1.261683513329722
20
-2.1458355929907911
30
0
0
SPLINE
5
110
100
AcDbEntity
8
0
100
AcDbSpline
70
0
71
3
72
9
73
5
74
0
42
0.000000001
43
0.0000000001
44
0.0000000001
40
-0.21362624531513566
40
-0.21362624531513566
40
-0.21362624531513566
40
-0.21362624531513566
40
-0.10540300073614753
40
0
40
0
40
0
40
0
10
1.261683513329722
20
-2.1458355929907911
30
0
10
1.2530981428539416
20
-2.1342074434669551
30
0
10
1.2361511323802197
20
-2.1112541682033661
30
0
10
1.2102893730086126
20
-2.0992397135813388
30
0
10
1.1975292037791136
20
-2.0933117922835525
30
0
0
SPLINE
5
111
100
AcDbEntity
8
0
100
AcDbSpline
70
0
71
3
72
9
73
5
74
0
42
0.000000001
43
0.0000000001
44
0.0000000001
40
-0.32825114650408332
40
-0.32825114650408332
40
-0.32825114650408332
40
-0.32825114650408332
40
-0.19344213589297563
40
0
40
0
40
0
40
0
10
1.1975292037791136
20
-2.0933117922835525
30
0
10
1.1803183155843948
20
-2.0889686892179951
30
0
10
1.1384109255912476
20
-2.0783935165778882
30
0
10
1.0951123753627177
20
-2.0783377829217686
30
0
10
1.069596047007191
20
-2.0783049384440084
30
0
0
LINE
5
112
100
AcDbEntity
8
0
100
AcDbLine
10
1.069596047007191
20
-2.0783049384440084
30
0
11
0.83586492735569706
21
-2.078304938444008
31
0
0
LINE
5
113
100
AcDbEntity
8
0
100
AcDbLine
10
0.83586492735569706
20
-2.078304938444008
30
0
11
0.83586492735569673
21
-2.628304873864487
31
0
0
LINE
5
114
100
AcDbEntity
8
0
100
AcDbLine
10
0.83586492735569673
20
-2.628304873864487
30
0
11
0.9469154204909237
21
-2.628304873864487
31
0
0
LINE
5
115
100
AcDbEntity
8
0
100
AcDbLine
10
0.9469154204909237
20
-2.628304873864487
30
0
11
0.9469154204909237
21
-2.3987004606742612
31
0
0
SPLINE
5
116
100
AcDbEntity
8
0
100
AcDbSpline
70
0
71
3
72
9
73
5
74
0
42
0.000000001
43
0.0000000001
44
0.0000000001
40
-0.10360903827031576
40
-0.10360903827031576
40
-0.10360903827031576
40
-0.10360903827031576
40
-0.054705521918285482
40
0
40
0
40
0
40
0
10
1.0253260346848174
20
-2.4050784392619748
30
0
10
1.0312565540457221
20
-2.407676244533175
30
0
10
1.0438212007881698
20
-2.4131800636006027
30
0
10
1.0535692891615194
20
-2.4228552913386214
30
0
10
1.0587162750912442
20
-2.4279638068882554
30
0
0
SPLINE
5
117
100
AcDbEntity
8
0
100
AcDbSpline
70
0
71
3
72
9
73
5
74
0
42
0.000000001
43
0.0000000001
44
0.0000000001
40
-0.25325945789704896
40
-0.25325945789704896
40
-0.25325945789704896
40
-0.25325945789704896
40
-0.16117406816418881
40
0
40
0
40
0
40
0
10
1.0587162750912442
20
-2.4279638068882554
30
0
10
1.0663368255991448
20
-2.437350235629224
30
0
10
1.0872953782653929
20
-2.4631654258719244
30
0
10
1.1055961724775323
20
-2.4909459851000069
30
0
10
1.1172427797880677
20
-2.5086255054774309
30
0
0
LINE
5
118
100
AcDbEntity
8
0
100
AcDbLine
10
1.117242779788068
20
-2.5086255054774305
30
0
11
1.1975292037791134
21
-2.6283048738644879
31
0
0
LINE
5
119
100
AcDbEntity
8
0
100
AcDbLine
10
1.1975292037791134
20
-2.6283048738644879
30
0
11
1.3303396162085626
21
-2.628304873864487
31
0
0
LINE
5
120
100
AcDbEntity
8
0
100
AcDbLine
10
1.3303396162085626
20
-2.628304873864487
30
0
11
1.2631840485287442
21
-2.521006188054729
31
0
0
SPLINE
5
121
100
AcDbEntity
8
0
100
AcDbSpline
70
0
71
3
72
9
73
5
74
0
42
0.000000001
43
0.0000000001
44
0.0000000001
40
-0.27842795681232063
40
-0.27842795681232063
40
-0.27842795681232063
40
-0.27842795681232063
40
-0.11310702605061011
40
0
40
0
40
0
40
0
10
1.2631840485287442
20
-2.521006188054729
30
0
10
1.2517382547323239
20
-2.5025362544911567
30
0
10
1.2324616333985994
20
-2.4714298129724073
30
0
10
1.2092213085874728
20
-2.4431881590451665
30
0
10
1.1997802881743944
20
-2.4317154264825596
30
0
0
LWPOLYLINE
5
122
100
AcDbEntity
8
0
100
AcDbPolyline
90
12
70
1
43
0.0
10
-0.38787559402270738
20
-3.1516678220643812
10
-0.38787559402270738
20
-3.0297375570132079
10
-0.091115707018245576
20
-3.0297375570132079
10
-0.091115707018245548
20
-2.9366951758467348
10
-0.49892599329235204
20
-2.9366951758467348
10
-0.49892599329235204
20
-3.4866951112672138
10
-0.08061092810368134
20
-3.4866951112672147
10
-0.08061092810368134
20
-3.3940280046988698
10
-0.38787559402270738
20
-3.3940280046988698
10
-0.38787559402270738
20
-3.2443349286327252
10
-0.11175008411482722
20
-3.2443349286327252
10
-0.11175008411482722
20
-3.1516678220643812
0
LWPOLYLINE
5
123
100
AcDbEntity
8
0
100
AcDbPolyline
90
12
70
1
43
0.0
10
0.35335997756071746
20
-2.9366951758467348
10
0.24531074255470045
20
-3.1134003260004279
10
0.13501079861573159
20
-2.9366951758467348
10
0.0052017381810747056
20
-2.9366951758467348
10
0.17552919134380116
20
-3.1996898294433875
10
-0.012431286920714458
20
-3.4866951112672138
10
0.12075411851011666
20
-3.4866951112672138
10
0.24305984589058396
20
-3.296483642473
10
0.36499011094175737
20
-3.4866951112672138
10
0.4989261594344292
20
-3.4866951112672138
10
0.31096558730433116
20
-3.203816535904656
10
0.48204349579773403
20
-2.9366951758467357
0
LWPOLYLINE
5
124
100
AcDbEntity
8
0
100
AcDbPolyline
90
8
70
1
43
0.0
10
-1.0375696951010112
20
-2.9366951758467339
10
-1.0375696951010112
20
-3.029737557013207
10
-0.87437048812550977
20
-3.029737557013207
10
-0.87437048812550977
20
-3.4866951112672133
10
-0.76332008885586522
20
-3.4866951112672138
10
-0.76332008885586522
20
-3.0297375570132079
10
-0.60049606261291055
20
-3.0297375570132079
10
-0.60049606261291055
20
-2.9366951758467348
0
LWPOLYLINE
5
125
100
AcDbEntity
8
0
100
AcDbPolyline
90
8
70
1
43
0.0
10
0.5464717051175616
20
-2.9366951758467348
10
0.5464717051175616
20
-3.0297375570132083
10
0.70967053663073365
20
-3.0297375570132092
10
0.70967053663073365
20
-3.4866951112672151
10
0.82072102976596062
20
-3.4866951112672151
10
0.82072102976596062
20
-3.0297375570132083
10
0.98354514987449748
20
-3.0297375570132092
10
0.98354514987449748
20
-2.9366951758467352
0
SPLINE
5
126
100
AcDbEntity
8
0
100
AcDbSpline
70
0
71
3
72
9
73
5
74
0
42
0.000000001
43
0.0000000001
44
0.0000000001
40
-0.41854177260746411
40
-0.41854177260746411
40
-0.41854177260746411
40
-0.41854177260746411
40
-0.23216797479116361
40
0
40
0
40
0
40
0
10
0.098857343196867301
20
-2.1143213501126796
30
0
10
0.077770804743547667
20
-2.1011217735481003
30
0
10
0.030416523799469887
20
-2.071479333260156
30
0
10
-0.025706572632894699
20
-2.0698368168037611
30
0
10
-0.056838436858861939
20
-2.0689257017270832
30
0
0
SPLINE
5
127
100
AcDbEntity
8
0
100
AcDbSpline
70
0
71
3
72
9
73
5
74
0
42
0.000000001
43
0.0000000001
44
0.0000000001
40
-0.28105600933597796
40
-0.28105600933597796
40
-0.28105600933597796
40
-0.28105600933597796
40
-0.1311905950181691
40
0
40
0
40
0
40
0
10
-0.056838436858861939
20
-2.0689257017270832
30
0
10
-0.076630260211690268
20
-2.069488422986411
30
0
10
-0.11374763592075385
20
-2.0705437444709238
30
0
10
-0.14886886749265432
20
-2.0824852411722232
30
0
10
-0.16526266486626112
20
-2.0880592620278953
30
0
0
SPLINE
5
128
100
AcDbEntity
8
0
100
AcDbSpline
70
0
71
3
72
9
73
5
74
0
42
0.000000001
43
0.0000000001
44
0.0000000001
40
-0.22742463088867571
40
-0.22742463088867571
40
-0.22742463088867571
40
-0.22742463088867571
40
-0.11065584124933667
40
0
40
0
40
0
40
0
10
-0.16526266486626112
20
-2.0880592620278953
30
0
10
-0.1791698418683057
20
-2.0949991942000512
30
0
10
-0.20625614297806702
20
-2.1085157470179738
30
0
10
-0.22486468175173541
20
-2.1323587297063216
30
0
10
-0.23391886161068434
20
-2.1439597831936381
30
0
0
SPLINE
5
129
100
AcDbEntity
8
0
100
AcDbSpline
70
0
71
3
72
9
73
5
74
0
42
0.000000001
43
0.0000000001
44
0.0000000001
40
-0.21028300304543684
40
-0.21028300304543684
40
-0.21028300304543684
40
-0.21028300304543684
40
-0.10424127215366165
40
0
40
0
40
0
40
0
10
-0.23391886161068434
20
-2.1439597831936381
30
0
10
-0.24081247028914815
20
-2.1562637803653439
30
0
10
-0.25448264261222009
20
-2.1806628679035254
30
0
10
-0.25653646967889726
20
-2.2085474709089739
30
0
10
-0.25755459070205827
20
-2.2223703973875319
30
0
0
SPLINE
5
130
100
AcDbEntity
8
0
100
AcDbSpline
70
0
71
3
72
9
73
5
74
0
42
0.000000001
43
0.0000000001
44
0.0000000001
40
-0.31675985497586501
40
-0.31675985497586501
40
-0.31675985497586501
40
-0.31675985497586501
40
-0.16023612194594508
40
0
40
0
40
0
40
0
10
-0.25755459070205827
20
-2.2223703973875319
30
0
10
-0.25534704536389302
20
-2.243388173274774
30
0
10
-0.25087959670525228
20
-2.2859222191544832
30
0
10
-0.22167834386661814
20
-2.3172155655328095
30
0
10
-0.20690659979197124
20
-2.3330456159246298
30
0
0
SPLINE
5
131
100
AcDbEntity
8
0
100
AcDbSpline
70
0
71
3
72
9
73
5
74
0
42
0.000000001
43
0.0000000001
44
0.0000000001
40
-0.34919413039314579
40
-0.34919413039314579
40
-0.34919413039314579
40
-0.34919413039314579
40
-0.20288610739962937
40
0
40
0
40
0
40
0
10
-0.20690659979197124
20
-2.3330456159246298
30
0
10
-0.19084229051211513
20
-2.3437904281339561
30
0
10
-0.15250151879931292
20
-2.3694351281230994
30
0
10
-0.10765563011106151
20
-2.3808267443055513
30
0
10
-0.08159961428229405
20
-2.3874454141601849
30
0
0
SPLINE
5
132
100
AcDbEntity
8
0
100
AcDbSpline
70
0
71
3
72
9
73
5
74
0
42
0.000000001
43
0.0000000001
44
0.0000000001
40
-0.23396545552460501
40
-0.23396545552460501
40
-0.23396545552460501
40
-0.23396545552460501
40
-0.084658656063046525
40
0
40
0
40
0
40
0
10
-0.08159961428229405
20
-2.3874454141601849
30
0
10
-0.062566373531500505
20
-2.3921194655419242
30
0
10
-0.032741068465501767
20
-2.3994437572996845
30
0
10
-0.0033273543659145151
20
-2.4082645074338553
30
0
10
0.0073157788261639664
20
-2.4114562301185236
30
0
0
SPLINE
5
133
100
AcDbEntity
8
0
100
AcDbSpline
70
0
71
3
72
9
73
5
74
0
42
0.000000001
43
0.0000000001
44
0.0000000001
40
-0.11901549243416967
40
-0.11901549243416967
40
-0.11901549243416967
40
-0.11901549243416967
40
-0.051427874347855188
40
0
40
0
40
0
40
0
10
0.0073157788261639664
20
-2.4114562301185236
30
0
10
0.015735578751846106
20
-2.4145828918088248
30
0
10
0.030562061216023444
20
-2.4200886514624789
30
0
10
0.042098768607991457
20
-2.430827054401536
30
0
10
0.047083903954722089
20
-2.4354672338080263
30
0
0
SPLINE
5
134
100
AcDbEntity
8
0
100
AcDbSpline
70
0
71
3
72
9
73
5
74
0
42
0.000000001
43
0.0000000001
44
0.0000000001
40
-0.090421749808660953
40
-0.090421749808660953
40
-0.090421749808660953
40
-0.090421749808660953
40
-0.046333448911797588
40
0
40
0
40
0
40
0
10
0.047083903954722089
20
-2.4354672338080263
30
0
10
0.050475497899696319
20
-2.4402964429381302
30
0
10
0.057431398964300266
20
-2.4502007833380364
30
0
10
0.058279596195447703
20
-2.4622883504969444
30
0
10
0.058714225066926813
20
-2.4684821996163242
30
0
0
SPLINE
5
135
100
AcDbEntity
8
0
100
AcDbSpline
70
0
71
3
72
9
73
5
74
0
42
0.000000001
43
0.0000000001
44
0.0000000001
40
-0.15619849920854365
40
-0.15619849920854365
40
-0.15619849920854365
40
-0.15619849920854365
40
-0.081716674442473422
40
0
40
0
40
0
40
0
10
0.058714225066926813
20
-2.4684821996163242
30
0
10
0.057375669844403315
20
-2.4784589227713538
30
0
10
0.054568537802154059
20
-2.4993814658042224
30
0
10
0.039309561669300448
20
-2.5140712609908142
30
0
10
0.031326688650084575
20
-2.5217563617886567
30
0
0
SPLINE
5
136
100
AcDbEntity
8
0
100
AcDbSpline
70
0
71
3
72
9
73
5
74
0
42
0.000000001
43
0.0000000001
44
0.0000000001
40
-0.21588189955085557
40
-0.21588189955085557
40
-0.21588189955085557
40
-0.21588189955085557
40
-0.12020809802344334
40
0
40
0
40
0
40
0
10
0.031326688650084575
20
-2.5217563617886567
30
0
10
0.020378238569696967
20
-2.5283000830805764
30
0
10
-0.0043262485809946244
20
-2.5430655775009696
30
0
10
-0.033236888494545827
20
-2.5438370619417521
30
0
10
-0.049335009939090013
20
-2.5442666425479725
30
0
0
SPLINE
5
137
100
AcDbEntity
8
0
100
AcDbSpline
70
0
71
3
72
9
73
5
74
0
42
0.000000001
43
0.0000000001
44
0.0000000001
40
-0.21837404071871991
40
-0.21837404071871991
40
-0.21837404071871991
40
-0.21837404071871991
40
-0.10170098795396229
40
0
40
0
40
0
40
0
10
-0.049335009939090013
20
-2.5442666425479725
30
0
10
-0.064955739750306454
20
-2.5435273182582856
30
0
10
-0.094192669846997132
20
-2.542143543438697
30
0
10
-0.11862023027085905
20
-2.5261865719689722
30
0
10
-0.12999661466268245
20
-2.5187551036594469
30
0
0
SPLINE
5
138
100
AcDbEntity
8
0
100
AcDbSpline
70
0
71
3
72
9
73
5
74
0
42
0.000000001
43
0.0000000001
44
0.0000000001
40
-0.22964123288228458
40
-0.22964123288228458
40
-0.22964123288228458
40
-0.22964123288228458
40
-0.12553310312961324
40
0
40
0
40
0
40
0
10
-0.12999661466268245
20
-2.5187551036594469
30
0
10
-0.13916021679836274
20
-2.5083269110371611
30
0
10
-0.15937324816372825
20
-2.4853244518036242
30
0
10
-0.16584938607582989
20
-2.4552719373396878
30
0
10
-0.16938955905869391
20
-2.4388437665353657
30
0
0
LINE
5
139
100
AcDbEntity
8
0
100
AcDbLine
10
-0.16938955905869391
20
-2.4388437665353662
30
0
11
-0.27743860633354628
21
-2.4493486393155122
31
0
0
SPLINE
5
140
100
AcDbEntity
8
0
100
AcDbSpline
70
0
71
3
72
9
73
5
74
0
42
0.000000001
43
0.0000000001
44
0.0000000001
40
-0.4027443919980061
40
-0.4027443919980061
40
-0.4027443919980061
40
-0.4027443919980061
40
-0.1886808945640282
40
0
40
0
40
0
40
0
10
-0.27743860633354628
20
-2.4493486393155122
30
0
10
-0.2725863936062804
20
-2.477691401476326
30
0
10
-0.26345731981222814
20
-2.5310161796418384
30
0
10
-0.22750264509943999
20
-2.5712081239418021
30
0
10
-0.21065831325185722
20
-2.5900375655316976
30
0
0
SPLINE
5
141
100
AcDbEntity
8
0
100
AcDbSpline
70
0
71
3
72
9
73
5
74
0
42
0.000000001
43
0.0000000001
44
0.0000000001
40
-0.43161064680967953
40
-0.43161064680967953
40
-0.43161064680967953
40
-0.43161064680967953
40
-0.23616030851737846
40
0
40
0
40
0
40
0
10
-0.21065831325185722
20
-2.5900375655316976
30
0
10
-0.18861855758453991
20
-2.604011418281392
30
0
10
-0.13994842847546862
20
-2.6348697103489052
30
0
10
-0.082108295727174568
20
-2.6369313418196665
30
0
10
-0.050460458271148173
20
-2.6380593851795395
30
0
0
SPLINE
5
142
100
AcDbEntity
8
0
100
AcDbSpline
70
0
71
3
72
9
73
5
74
0
42
0.000000001
43
0.0000000001
44
0.0000000001
40
-0.30960296264957021
40
-0.30960296264957021
40
-0.30960296264957021
40
-0.30960296264957021
40
-0.14212481928139051
40
0
40
0
40
0
40
0
10
-0.050460458271148173
20
-2.6380593851795395
30
0
10
-0.02834615154250383
20
-2.6375385238990372
30
0
10
0.012534734419302191
20
-2.6365756508200211
30
0
10
0.051384655617419478
20
-2.6239644923207641
30
0
10
0.069218910115908722
20
-2.6181752756824692
30
0
0
SPLINE
5
143
100
AcDbEntity
8
0
100
AcDbSpline
70
0
71
3
72
9
73
5
74
0
42
0.000000001
43
0.0000000001
44
0.0000000001
40
-0.24795578450483713
40
-0.24795578450483713
40
-0.24795578450483713
40
-0.24795578450483713
40
-0.12187197302676941
40
0
40
0
40
0
40
0
10
0.069218910115908722
20
-2.6181752756824692
30
0
10
0.084242117280913839
20
-2.6106671930924952
30
0
10
0.11378668033551011
20
-2.5959018359312558
30
0
10
0.13371012169547181
20
-2.5695831434479866
30
0
10
0.14350263011736936
20
-2.556647325125271
30
0
0
SPLINE
5
144
100
AcDbEntity
8
0
100
AcDbSpline
70
0
71
3
72
9
73
5
74
0
42
0.000000001
43
0.0000000001
44
0.0000000001
40
-0.237048388409767
40
-0.237048388409767
40
-0.237048388409767
40
-0.237048388409767
40
-0.11744811329389938
40
0
40
0
40
0
40
0
10
0.14350263011736936
20
-2.556647325125271
30
0
10
0.15116214539787515
20
-2.5427138305922963
30
0
10
0.16634334587157792
20
-2.5150975695029465
30
0
10
0.16863105898537495
20
-2.4836755047137489
30
0
10
0.1697645304709888
20
-2.4681071127493599
30
0
0
SPLINE
5
145
100
AcDbEntity
8
0
100
AcDbSpline
70
0
71
3
72
9
73
5
74
0
42
0.000000001
43
0.0000000001
44
0.0000000001
40
-0.23134587417258812
40
-0.23134587417258812
40
-0.23134587417258812
40
-0.23134587417258812
40
-0.10879964782581643
40
0
40
0
40
0
40
0
10
0.1697645304709888
20
-2.4681071127493599
30
0
10
0.16908222154046088
20
-2.4518262634468844
30
0
10
0.16779414143636981
20
-2.4210908632110977
30
0
10
0.15407942031026536
20
-2.3936143008307948
30
0
10
0.14762952430980217
20
-2.3806923487055065
30
0
0
SPLINE
5
146
100
AcDbEntity
8
0
100
AcDbSpline
70
0
71
3
72
9
73
5
74
0
42
0.000000001
43
0.0000000001
44
0.0000000001
40
-0.21176785989728056
40
-0.21176785989728056
40
-0.21176785989728056
40
-0.21176785989728056
40
-0.10732364152437666
40
0
40
0
40
0
40
0
10
0.14762952430980217
20
-2.3806923487055065
30
0
10
0.1395708338801577
20
-2.3694084384815235
30
0
10
0.12323128294620943
20
-2.3465295318590962
30
0
10
0.099087811313144633
20
-2.3321032392538448
30
0
10
0.086851935217697712
20
-2.3247920152709285
30
0
0
SPLINE
5
147
100
AcDbEntity
8
0
100
AcDbSpline
70
0
71
3
72
9
73
5
74
0
42
0.000000001
43
0.0000000001
44
0.0000000001
40
-0.32089341084086742
40
-0.32089341084086742
40
-0.32089341084086742
40
-0.32089341084086742
40
-0.18564868145466593
40
0
40
0
40
0
40
0
10
0.086851935217697712
20
-2.3247920152709285
30
0
10
0.070583843867361204
20
-2.3176141063130631
30
0
10
0.031984755052792149
20
-2.3005831750623686
30
0
10
-0.0090736971071500808
20
-2.2907263394607238
30
0
10
-0.032827527034941163
20
-2.2850237962767879
30
0
0
SPLINE
5
148
100
AcDbEntity
8
0
100
AcDbSpline
70
0
71
3
72
9
73
5
74
0
42
0.000000001
43
0.0000000001
44
0.0000000001
40
-0.27663222211620742
40
-0.27663222211620742
40
-0.27663222211620742
40
-0.27663222211620742
40
-0.10227931401986093
40
0
40
0
40
0
40
0
10
-0.032827527034941163
20
-2.2850237962767879
30
0
10
-0.055324307278074622
20
-2.2800251549827601
30
0
10
-0.091018201788162209
20
-2.2720941989475172
30
0
10
-0.12303594176548312
20
-2.2546915116434425
30
0
10
-0.13487387032020889
20
-2.2482572108741867
30
0
0
SPLINE
5
149
100
AcDbEntity
8
0
100
AcDbSpline
70
0
71
3
72
9
73
5
74
0
42
0.000000001
43
0.0000000001
44
0.0000000001
40
-0.097127092458312039
40
-0.097127092458312039
40
-0.097127092458312039
40
-0.097127092458312039
40
-0.047158768042511526
40
0
40
0
40
0
40
0
10
-0.13487387032020889
20
-2.2482572108741867
30
0
10
-0.1396873555295253
20
-2.2434948528489107
30
0
10
-0.14904367932941184
20
-2.2342379087018243
30
0
10
-0.15061730177407628
20
-2.2211982185871197
30
0
10
-0.15138135322435775
20
-2.2148669704677597
30
0
0
SPLINE
5
150
100
AcDbEntity
8
0
100
AcDbSpline
70
0
71
3
72
9
73
5
74
0
42
0.000000001
43
0.0000000001
44
0.0000000001
40
-0.10073282086378132
40
-0.10073282086378132
40
-0.10073282086378132
40
-0.10073282086378132
40
-0.050628010392700998
40
0
40
0
40
0
40
0
10
-0.15138135322435775
20
-2.2148669704677597
30
0
10
-0.15063147462971796
20
-2.2080873987392131
30
0
10
-0.14912388712597835
20
-2.1944574622511968
30
0
10
-0.13889123038173437
20
-2.1853192209642893
30
0
10
-0.1337483281225684
20
-2.1807263685962393
30
0
0
SPLINE
5
151
100
AcDbEntity
8
0
100
AcDbSpline
70
0
71
3
72
9
73
5
74
0
42
0.000000001
43
0.0000000001
44
0.0000000001
40
-0.20146097067802321
40
-0.20146097067802321
40
-0.20146097067802321
40
-0.20146097067802321
40
-0.11031216145440151
40
0
40
0
40
0
40
0
10
-0.1337483281225684
20
-2.1807263685962393
30
0
10
-0.12309531501452706
20
-2.1749405598114673
30
0
10
-0.099549572841128156
20
-2.1621525194205291
30
0
10
-0.072677812138010722
20
-2.1613059792011255
30
0
10
-0.057963885190920106
20
-2.1608424468303338
30
0
0
SPLINE
5
152
100
AcDbEntity
8
0
100
AcDbSpline
70
0
71
3
72
9
73
5
74
0
42
0.000000001
43
0.0000000001
44
0.0000000001
40
-0.1870450265520808
40
-0.1870450265520808
40
-0.1870450265520808
40
-0.1870450265520808
40
-0.082257916364699285
40
0
40
0
40
0
40
0
10
-0.057963885190920106
20
-2.1608424468303338
30
0
10
-0.043943940424856977
20
-2.1611701784946709
30
0
10
-0.018918334352338865
20
-2.161755179624564
30
0
10
0.0026900787971401467
20
-2.1741499830219051
30
0
10
0.012192940618108095
20
-2.1796009202641811
30
0
0
SPLINE
5
153
100
AcDbEntity
8
0
100
AcDbSpline
70
0
71
3
72
9
73
5
74
0
42
0.000000001
43
0.0000000001
44
0.0000000001
40
-0.17607694075288632
40
-0.17607694075288632
40
-0.17607694075288632
40
-0.17607694075288632
40
-0.096754239239251791
40
0
40
0
40
0
40
0
10
0.012192940618108095
20
-2.1796009202641811
30
0
10
0.019467857647357988
20
-2.1873204874506427
30
0
10
0.035616389029905916
20
-2.2044560331165313
30
0
10
0.040353681104416318
20
-2.227639306086822
30
0
10
0.04295682203112465
20
-2.2403785093562858
30
0
0
LINE
5
154
100
AcDbEntity
8
0
100
AcDbLine
10
0.042956822031124657
20
-2.2403785093562858
30
0
11
0.15400731516635149
21
-2.2355014414299235
31
0
0
SPLINE
5
155
100
AcDbEntity
8
0
100
AcDbSpline
70
0
71
3
72
9
73
5
74
0
42
0.000000001
43
0.0000000001
44
0.0000000001
40
-0.34610997099176233
40
-0.34610997099176233
40
-0.34610997099176233
40
-0.34610997099176233
40
-0.1687180462733224
40
0
40
0
40
0
40
0
10
0.15400731516635127
20
-2.2355014414299239
30
0
10
0.15128095971833577
20
-2.211707102244123
30
0
10
0.14596155858706256
20
-2.1652818883656582
30
0
10
0.11429420934508089
20
-2.1310219999661086
30
0
10
0.098857343196867301
20
-2.1143213501126796
30
0
0
LWPOLYLINE
5
156
100
AcDbEntity
8
0
100
AcDbPolyline
90
6
70
1
43
0.0
10
-1.219289191595214
20
-2.0828069195034038
10
-1.3303396377976497
20
-2.0828069195034038
10
-1.3303396377976497
20
-2.6283048738644865
10
-0.94316368168733389
20
-2.6283048738644856
10
-0.943163681687334
20
-2.5356377672961425
10
-1.219289191595214
20
-2.5356377672961417
0
SPLINE
5
157
100
AcDbEntity
8
0
100
AcDbSpline
70
0
71
3
72
9
73
5
74
0
42
0.000000001
43
0.0000000001
44
0.0000000001
40
-0.10009104144963957
40
-0.10009104144963957
40
-0.10009104144963957
40
-0.10009104144963957
40
-0.050719283174159573
40
0
40
0
40
0
40
0
10
1.1600122569114184
20
-2.2808969020843568
30
0
10
1.1558574938883182
20
-2.2860075944863851
30
0
10
1.147434570085641
20
-2.2963684676437368
30
0
10
1.1351155409592641
20
-2.3015379863572507
30
0
10
1.1288731009002726
20
-2.3041575443087661
30
0
0
SPLINE
5
158
100
AcDbEntity
8
0
100
AcDbSpline
70
0
71
3
72
9
73
5
74
0
42
0.000000001
43
0.0000000001
44
0.0000000001
40
-0.25446504559394212
40
-0.25446504559394212
40
-0.25446504559394212
40
-0.25446504559394212
40
-0.16491314943685115
40
0
40
0
40
0
40
0
10
1.1288731009002726
20
-2.3041575443087661
30
0
10
1.1172635295545765
20
-2.3060891079102337
30
0
10
1.0842745005269134
20
-2.3115777177667214
30
0
10
1.0507828498795666
20
-2.3111729383325934
30
0
10
1.0290776542791211
20
-2.3109106097634435
30
0
0
LINE
5
159
100
AcDbEntity
8
0
100
AcDbLine
10
0.9469154204909237
20
-2.3109106097634435
30
0
11
0.9469154204909237
21
-2.1713471318793163
31
0
0
LINE
5
160
100
AcDbEntity
8
0
100
AcDbLine
10
0.9469154204909237
20
-2.1713471318793163
30
0
11
1.0335798230696831
21
-2.1713471318793163
31
0
0
SPLINE
5
161
100
AcDbEntity
8
0
100
AcDbSpline
70
0
71
3
72
9
73
5
74
0
42
0.000000001
43
0.0000000001
44
0.0000000001
40
-0.20593160152404405
40
-0.20593160152404405
40
-0.20593160152404405
40
-0.20593160152404405
40
-0.068704137682453245
40
0
40
0
40
0
40
0
10
1.0335798230696831
20
-2.1713471318793163
30
0
10
1.0515958929575864
20
-2.1712435292319783
30
0
10
1.0786318668167831
20
-2.1710880570073154
30
0
10
1.1056145002933373
20
-2.1726890098914433
30
0
10
1.1146166085258222
20
-2.1732231294076336
30
0
0
SPLINE
5
162
100
AcDbEntity
8
0
100
AcDbSpline
70
0
71
3
72
9
73
5
74
0
42
0.000000001
43
0.0000000001
44
0.0000000001
40
-0.12129682562714844
40
-0.12129682562714844
40
-0.12129682562714844
40
-0.12129682562714844
40
-0.057483627586279014
40
0
40
0
40
0
40
0
10
1.1146166085258222
20
-2.1732231294076336
30
0
10
1.1229606121410205
20
-2.1750917212466416
30
0
10
1.1388209855844069
20
-2.1786435610763784
30
0
10
1.150653232103523
20
-2.1897293813980134
30
0
10
1.1562606373171147
20
-2.1949830487018556
30
0
0
SPLINE
5
163
100
AcDbEntity
8
0
100
AcDbSpline
70
0
71
3
72
9
73
5
74
0
42
0.000000001
43
0.0000000001
44
0.0000000001
40
-0.12173179490789279
40
-0.12173179490789279
40
-0.12173179490789279
40
-0.12173179490789279
40
-0.064317985380877546
40
0
40
0
40
0
40
0
10
1.1562606373171147
20
-2.1949830487018556
30
0
10
1.1606337974241581
20
-2.2013009016985641
30
0
10
1.1699060027286934
20
-2.2146963476999608
30
0
10
1.1707966975576456
20
-2.2310091473326881
30
0
10
1.1712673034254939
20
-2.2396281478911932
30
0
0
SPLINE
5
164
100
AcDbEntity
8
0
100
AcDbSpline
70
0
71
3
72
9
73
5
74
0
42
0.000000001
43
0.0000000001
44
0.0000000001
40
-0.10990823621571617
40
-0.10990823621571617
40
-0.10990823621571617
40
-0.10990823621571617
40
-0.051814476223247523
40
0
40
0
40
0
40
0
10
1.1712673034254939
20
-2.2396281478911932
30
0
10
1.1709152790656145
20
-2.2473593827696852
30
0
10
1.1702492802302094
20
-2.2619861927639882
30
0
10
1.1632921054456713
20
-2.2748380839773157
30
0
10
1.1600122569114184
20
-2.2808969020843568
30
0
0
LINE
5
165
100
AcDbEntity
8
0
100
AcDbLine
10
0.9469154204909237
20
-2.3109106097634435
30
0
11
0.9469154204909237
21
-2.3987004606742612
31
0
0
LINE
5
166
100
AcDbEntity
8
0
100
AcDbLine
10
1.0290776542791211
20
-2.310910609763444
30
0
11
1.0253260346848174
21
-2.4050784392619748
31
0
0
ENDSEC
0
SECTION
2
OBJECTS
0
DICTIONARY
5
C
100
AcDbDictionary
3
ACAD_GROUP
350
D
3
ACAD_MLINESTYLE
350
17
0
DICTIONARY
5
D
100
AcDbDictionary
0
DICTIONARY
5
1A
330
C
100
AcDbDictionary
0
DICTIONARY
5
17
100
AcDbDictionary
0
ENDSEC
0
EOF
