<?xml version="1.0" encoding="UTF-8" standalone="no"?>
<!-- Created with Inkscape (http://www.inkscape.org/) -->

<svg
   width="210mm"
   height="297mm"
   viewBox="0 0 210 297"
   version="1.1"
   id="svg1"
   inkscape:version="1.4.2 (f4327f4, 2025-05-13)"
   sodipodi:docname="keychain.svg"
   xmlns:inkscape="http://www.inkscape.org/namespaces/inkscape"
   xmlns:sodipodi="http://sodipodi.sourceforge.net/DTD/sodipodi-0.dtd"
   xmlns="http://www.w3.org/2000/svg"
   xmlns:svg="http://www.w3.org/2000/svg">
  <sodipodi:namedview
     id="namedview1"
     pagecolor="#ffffff"
     bordercolor="#000000"
     borderopacity="0.25"
     inkscape:showpageshadow="2"
     inkscape:pageopacity="0.0"
     inkscape:pagecheckerboard="0"
     inkscape:deskcolor="#d1d1d1"
     inkscape:document-units="mm"
     inkscape:zoom="1.4841611"
     inkscape:cx="407.30081"
     inkscape:cy="409.99593"
     inkscape:window-width="1920"
     inkscape:window-height="1051"
     inkscape:window-x="-9"
     inkscape:window-y="-9"
     inkscape:window-maximized="1"
     inkscape:current-layer="layer1" />
  <defs
     id="defs1">
    <rect
       x="80.179977"
       y="81.190651"
       width="141.07043"
       height="77.907112"
       id="rect8" />
    <rect
       x="80.179977"
       y="81.190651"
       width="141.07043"
       height="77.907112"
       id="rect8-6" />
    <rect
       x="80.179977"
       y="81.190651"
       width="141.07043"
       height="77.907112"
       id="rect8-4" />
    <rect
       x="80.179977"
       y="81.190651"
       width="141.07043"
       height="77.907112"
       id="rect8-6-8" />
  </defs>
  <g
     inkscape:label="Layer 1"
     inkscape:groupmode="layer"
     id="layer1">
    <path
       style="vector-effect:non-scaling-stroke;fill:none;fill-opacity:1;stroke:#000000;stroke-width:0.27852;stroke-dasharray:none;stroke-opacity:1;-inkscape-stroke:hairline"
       id="path3"
       sodipodi:type="arc"
       sodipodi:cx="100.80624"
       sodipodi:cy="65.881241"
       sodipodi:rx="25.4"
       sodipodi:ry="25.399988"
       sodipodi:start="0.017453293"
       sodipodi:end="0"
       sodipodi:arc-type="chord"
       d="M 126.20237,66.324532 A 25.4,25.399988 0 0 1 100.47376,91.279053 25.4,25.399988 0 0 1 75.407204,65.659587 25.4,25.399988 0 0 1 100.91706,40.481494 25.4,25.399988 0 0 1 126.20624,65.881241 Z"
       sodipodi:open="true"
       inkscape:label="outside cut" />
    <path
       style="fill:none;fill-opacity:1;stroke:#000000;stroke-width:0.26841;stroke-dasharray:none;stroke-opacity:1"
       id="path3-8"
       sodipodi:type="arc"
       sodipodi:cx="100.80624"
       sodipodi:cy="65.881241"
       sodipodi:rx="24.477987"
       sodipodi:ry="24.477978"
       sodipodi:start="0.017453293"
       sodipodi:end="0"
       sodipodi:arc-type="chord"
       d="M 125.2805,66.30844 A 24.477987,24.477978 0 0 1 100.48583,90.357122 24.477987,24.477978 0 0 1 76.329181,65.667633 24.477987,24.477978 0 0 1 100.91304,41.403496 24.477987,24.477978 0 0 1 125.28422,65.881241 Z"
       sodipodi:open="true"
       inkscape:label="inside etching" />
    <path
       style="vector-effect:non-scaling-stroke;fill:none;fill-opacity:1;stroke:#000000;stroke-width:0.264583;stroke-dasharray:none;stroke-opacity:1;-inkscape-stroke:hairline"
       id="path4"
       sodipodi:type="arc"
       sodipodi:cx="100.80624"
       sodipodi:cy="48.471317"
       sodipodi:rx="3.175"
       sodipodi:ry="3.175"
       sodipodi:start="0.017453293"
       sodipodi:end="6.2831853"
       sodipodi:open="true"
       sodipodi:arc-type="chord"
       d="m 103.98075,48.526729 a 3.175,3.175 0 0 1 -3.21607,3.119316 3.175,3.175 0 0 1 -3.133323,-3.202434 3.175,3.175 0 0 1 3.188733,-3.147263 3.175,3.175 0 0 1 3.16115,3.174969 z"
       inkscape:label="hole" />
    <path
       d="m 78.93324,69.819359 c 1.30521,2.367417 2.61039,4.734789 3.9154,7.102049 1.47026,2.666813 2.94052,5.333543 4.41078,8.000366 0.065,0.117809 0.12668,0.231873 0.22599,0.326558 0.39425,0.375703 1.21655,0.252169 1.266,-0.370521 0.0524,-0.658456 0.10469,-1.316865 0.15703,-1.97533 0.0674,-0.848432 0.13482,-1.696819 0.2023,-2.545242 0.019,-0.239232 -0.008,-0.660917 0.20831,-0.786877 0.17508,-0.101932 0.45585,-0.111936 0.64969,-0.146807 1.09358,-0.196754 2.18797,-0.389248 3.28384,-0.572623 0.55237,-0.09247 1.10524,-0.182785 1.6594,-0.263317 0.31431,-0.04564 0.55498,-0.114904 0.80612,-0.324871 0.19893,-0.166224 0.34408,-0.384905 0.48786,-0.597628 0.10526,-0.155724 0.20336,-0.326549 0.33737,-0.460217 0.11219,-0.111889 0.22876,-0.13128 0.37842,-0.155004 0.11488,-0.01826 -0.0596,-0.0065 -0.009,-0.0065 0.0313,-2.8e-5 0.0625,-1.01e-4 0.0937,-1.48e-4 0.43393,-7.93e-4 0.86782,-0.0018 1.30171,-0.0028 0.10955,-2.12e-4 0.2168,0.01088 0.32671,0.0092 0.36117,-0.0065 0.67014,-0.267529 0.90087,-0.517872 0.0668,-0.07238 0.11649,-0.157511 0.16277,-0.243805 -0.0698,0.130302 0.047,-0.06537 0.0649,-0.09305 0.10507,-0.162056 0.21008,-0.323985 0.31511,-0.485996 0.1432,-0.220782 0.32019,-0.432584 0.52713,-0.595813 0.28624,-0.225808 -0.0472,-0.642929 -0.34398,-0.442542 -0.004,0.0018 -0.007,0.0046 -0.01,0.0065 0.13216,0.129649 0.26442,0.259305 0.39664,0.388917 -0.0722,0.08234 0.0575,-0.03743 0.0594,-0.03882 0.076,-0.05781 0.15782,-0.106265 0.24159,-0.151823 0.202,-0.109833 0.42526,-0.166003 0.6494,-0.208573 0.35083,-0.06657 0.67332,-0.0967 1.02835,-0.04518 0.53931,0.07837 0.89812,0.53754 1.23977,0.921071 0.2577,0.289225 0.50416,0.588436 0.76516,0.874692 0.16713,0.183246 0.34111,0.3741 0.54321,0.519431 0.23442,0.16865 0.54932,0.141975 0.81485,0.07939 0.34556,-0.08151 0.67698,-0.243593 1.00493,-0.375454 0.16289,-0.06556 0.32654,-0.128717 0.49235,-0.186759 0.31033,-0.108552 0.48314,-0.108459 0.76401,0.08225 0.29996,0.203752 0.57687,0.448775 0.86192,0.672406 0.29782,0.233581 0.58893,0.514018 0.94774,0.646238 0.67316,0.248121 1.41319,0.320971 2.11503,0.448987 0.68776,0.125554 1.38911,0.310902 2.08799,0.357373 0.32376,0.02158 0.61743,-0.01743 0.92085,-0.139088 0.0314,-0.01263 0.28242,-0.146006 0.13493,-0.06694 0.0187,-0.01005 0.0375,-0.02019 0.0563,-0.03024 0.23479,-0.125867 0.46966,-0.251643 0.70456,-0.377279 0.95922,-0.513124 1.91933,-1.024589 2.88059,-1.533868 1.01032,-0.535271 2.02116,-1.069758 3.03872,-1.591245 0.42471,-0.217638 0.87295,-0.375086 0.78349,-1.001427 -0.0514,-0.36012 -0.41595,-0.535519 -0.74018,-0.561152 -2.20026,-0.173943 -4.3967,-0.416725 -6.58427,-0.708689 -3.39418,-0.453015 -6.75126,-1.114938 -10.07059,-1.955607 -2.27689,-0.576459 -4.50746,-1.301873 -6.75458,-1.980761 -0.74231,-0.224249 -1.48748,-0.438964 -2.23572,-0.642836 -0.32261,-0.08787 -0.80906,-0.326356 -1.14607,-0.199842 -0.2786,0.104624 -0.45612,0.441076 -0.33697,0.727083 0.12654,0.303766 0.5582,0.166308 0.53698,-0.143829 -5e-4,-0.01798 -0.004,-0.0355 -0.0105,-0.05256 -0.18531,0.02453 -0.37048,0.04915 -0.55573,0.07367 0.26076,0.979869 0.54126,1.950536 0.72562,2.948311 0.0619,0.335023 0.11752,0.671171 0.16684,1.008222 0.042,0.287446 0.10585,0.598929 0.0705,0.889555 -0.0396,0.327361 -0.94952,-0.214798 -1.0522,-0.263481 -0.15427,-0.07321 -0.24868,-0.117487 -0.32922,-0.175649 -0.37602,-0.271549 -0.22704,-0.594494 -0.068,-0.939428 0.12682,-0.275118 0.27112,-0.560342 0.30444,-0.865463 0.0394,-0.361439 -0.0999,-0.657967 -0.18704,-0.990565 -0.14871,-0.567588 -0.79235,-0.975738 -1.33615,-1.138413 -0.43732,-0.130819 -0.81886,0.175132 -0.81754,0.606203 l 0.008,2.507623 c 0.002,0.442809 0.003,0.885573 0.005,1.328409 6.1e-4,0.187497 0.0372,0.424111 -0.0137,0.605881 -0.0426,0.152533 -0.17716,0.304854 -0.26728,0.430832 -0.18242,0.25475 -0.3649,0.474112 -0.60978,0.671641 -0.24527,0.197833 -0.56291,0.284606 -0.8594,0.376385 -0.36198,0.112019 -0.73664,0.19728 -1.11415,0.234438 -0.37938,0.03725 -0.76609,-0.358959 -1.06573,-0.548696 -0.37194,-0.23536 -0.41583,-0.589165 -0.5144,-0.975573 -0.2682,-1.050921 -0.52875,-2.105816 -0.89498,-3.12762 -0.16524,-0.460789 -0.33651,-0.919411 -0.50975,-1.377222 -0.0828,-0.218744 0.0265,0.126301 -0.0268,-0.07284 -0.0206,-0.0769 -0.0494,-0.148964 -0.083,-0.221206 -0.14816,-0.318362 -0.34409,-0.609209 -0.69161,-0.716839 -0.20823,-0.06454 -0.42568,-0.05016 -0.64045,-0.04831 -0.34551,0.0028 -0.69107,0.0055 -1.03659,0.0083 -0.9875,0.0083 -1.9749,0.01632 -2.96236,0.02453 -0.46192,0.0037 -0.92374,0.0074 -1.3857,0.01143 -0.3193,0.0028 -0.31289,0.536249 0.002,0.555962 0.0171,0.0018 0.0342,0.0028 0.0514,0.0028 0.25581,0.0074 0.3886,-0.235489 0.25612,-0.450075 -0.17343,-0.280964 -0.80702,-0.0402 -0.98097,0.109769 -0.29191,0.251597 -0.25253,0.704124 -0.0577,0.998466 0.19969,0.301655 0.64078,-0.04463 0.44254,-0.343975 0.0243,0.03679 -0.0127,-0.03218 -0.0246,-0.06178 -0.0245,-0.06095 -0.0228,-0.144649 0.0302,-0.1903 0.0741,-0.0639 0.25956,-0.0674 0.33403,-0.0627 -0.0621,-0.03541 -0.12429,-0.07072 -0.18638,-0.106127 1.1e-4,2.31e-4 2.2e-4,3.78e-4 3.2e-4,6.18e-4 0.0854,-0.15009 0.17079,-0.300059 0.25617,-0.450112 -0.0172,-2.86e-4 -0.0343,-9.22e-4 -0.0514,-0.0028 7e-4,0.185293 0.001,0.370623 0.002,0.555962 1.5508,-0.01282 3.10159,-0.02563 4.65238,-0.03845 0.28985,-0.0028 0.57966,-0.0046 0.86954,-0.0074 0.0182,-1.56e-4 0.15841,0.0018 0.0692,-2.02e-4 0.33647,0.0074 0.48296,0.270618 0.59092,0.559806 0.0276,0.07422 0.003,0.04094 0.0416,0.136176 0.0676,0.168291 -0.0246,-0.07192 0.0338,0.08289 0.0849,0.22483 0.16891,0.449891 0.25238,0.67521 0.18832,0.508154 0.38009,1.016474 0.53291,1.536697 0.25336,0.861867 0.50091,1.738799 0.68412,2.618277 0.10454,0.501663 0.54727,0.794401 0.94621,1.059422 0.22394,0.148781 0.46328,0.288838 0.71876,0.375169 0.29352,0.09928 0.60681,0.03024 0.90198,-0.02775 0.66818,-0.131528 1.37483,-0.317172 1.90127,-0.766122 0.35636,-0.303959 0.6397,-0.709969 0.86583,-1.118036 0.13124,-0.23689 0.0983,-0.512405 0.0975,-0.773296 -9.2e-4,-0.395066 -0.003,-0.790095 -0.004,-1.185216 -0.004,-0.992298 -0.006,-1.984633 -0.01,-2.976922 -0.0177,0.06814 -0.0355,0.136332 -0.0532,0.204453 0.15229,-0.213655 0.48007,0.05007 0.64776,0.157908 0.1573,0.101194 0.32695,0.181439 0.41545,0.356073 0.0502,0.09913 0.0625,0.211599 0.10607,0.313447 0.15298,0.358065 0.12846,0.671751 -0.0165,1.021112 -0.11556,0.278658 -0.26189,0.538646 -0.33597,0.832619 -0.13478,0.53482 0.24162,1.00517 0.70488,1.225077 0.31137,0.147802 0.62805,0.342823 0.95482,0.451983 0.23962,0.08003 0.50581,0.07727 0.73039,-0.04361 0.29489,-0.158775 0.34954,-0.47946 0.34306,-0.784738 -0.0132,-0.612206 -0.15207,-1.23662 -0.26294,-1.836618 -0.17929,-0.970151 -0.45728,-1.915655 -0.71081,-2.868251 -0.0912,-0.342555 -0.64168,-0.279995 -0.55574,0.07358 0.006,0.01706 0.0101,0.03458 0.0105,0.05256 0.17902,-0.04795 0.35797,-0.09588 0.537,-0.14393 0.011,0.02637 -0.004,0.01402 0.0849,0.02886 0.17453,0.02923 0.34717,0.09091 0.51801,0.136812 0.32208,0.08667 0.64353,0.176017 0.96449,0.266829 0.56259,0.159264 1.1231,0.325673 1.68248,0.495716 1.04663,0.318223 2.08867,0.651134 3.1361,0.966923 2.87769,0.867574 5.80472,1.571606 8.75352,2.151126 3.06852,0.603133 6.18281,0.985171 9.29343,1.293694 0.71059,0.07044 1.42187,0.136582 2.13379,0.192642 0.0575,0.0046 0.1057,0.01217 0.16161,0.03319 0.0893,0.03347 0.0977,0.156433 0.0522,0.228887 -0.0549,0.08741 0.20677,-0.09698 0.008,0.0028 -0.0989,0.0497 -0.1976,0.09965 -0.29616,0.149832 -0.45425,0.231293 -0.90626,0.466994 -1.35789,0.703275 -1.7928,0.937926 -3.57793,1.890623 -5.36114,2.846574 -0.0348,0.01863 -0.0695,0.03725 -0.1043,0.05597 -0.0546,0.02932 -0.14165,0.07247 -0.28491,0.122078 -0.18368,0.06353 -0.36305,0.05237 -0.55214,0.03983 -0.22768,-0.01521 -0.45071,-0.06648 -0.67499,-0.107399 -0.896,-0.163487 -1.79202,-0.327029 -2.68807,-0.490479 -0.0898,-0.01641 -0.17955,-0.03282 -0.26924,-0.04914 0.0887,0.01613 -0.018,-0.0065 -0.0883,-0.02849 -0.12807,-0.03946 -0.28265,-0.07054 -0.39864,-0.139514 -0.32367,-0.192347 -0.61714,-0.462836 -0.91375,-0.695457 -0.30376,-0.238273 -0.59612,-0.494554 -0.93831,-0.676519 -0.48395,-0.257387 -1.02334,0.01014 -1.48494,0.197335 -0.27863,0.113015 -0.5559,0.237508 -0.84114,0.333096 -0.25558,0.08566 -0.42436,0.08667 -0.6203,-0.08981 -0.18925,-0.1703 -0.35659,-0.368843 -0.52266,-0.561503 -0.61511,-0.71351 -1.21296,-1.594177 -2.2073,-1.738569 -0.75883,-0.11022 -1.89167,0.07496 -2.41905,0.676694 -0.21962,0.250527 0.14834,0.556579 0.39663,0.388907 0.004,-0.0018 0.006,-0.0046 0.01,-0.0065 l -0.34397,-0.442541 c -0.37475,0.295624 -0.63064,0.700325 -0.88721,1.095926 -0.18914,0.291678 -0.4435,0.814215 -0.89001,0.717835 -0.1133,-0.02453 -0.25951,4.15e-4 -0.37472,6.64e-4 -0.25516,4.24e-4 -0.51037,8.94e-4 -0.76553,0.0018 -0.41405,8.02e-4 -0.80783,-0.01005 -1.14473,0.276187 -0.34343,0.291789 -0.50223,0.745174 -0.82526,1.057791 -0.21205,0.205282 -0.48852,0.204056 -0.76326,0.245262 -0.28391,0.04251 -0.56747,0.08787 -0.85078,0.13376 -1.1651,0.189 -2.32762,0.393674 -3.48945,0.601188 -0.2663,0.04758 -0.5325,0.0954 -0.79865,0.143801 -0.5731,0.104163 -0.79745,0.445216 -0.88058,0.991791 -0.09,0.59218 -0.10439,1.201693 -0.15182,1.79805 -0.0723,0.909204 -0.14451,1.818408 -0.21677,2.727658 -0.0143,0.180166 0.026,0.608223 -0.30925,0.415803 -0.0901,-0.05163 -0.0905,-0.08713 -0.14638,-0.188723 -1.48679,-2.696715 -2.97359,-5.39343 -4.46044,-8.090329 -1.28517,-2.331181 -2.57048,-4.662326 -3.85589,-6.99371 -0.17278,-0.317679 -0.69284,-0.105906 -0.51848,0.209754 z"
       fill="#dd1f2c"
       id="path1"
       inkscape:label="circuit"
       style="fill:#000000;fill-opacity:1;stroke-width:0.0622783" />
    <text
       xml:space="preserve"
       id="text8"
       style="font-style:normal;font-variant:normal;font-weight:normal;font-stretch:normal;font-size:12px;font-family:Calibri;-inkscape-font-specification:Calibri;text-align:center;writing-mode:lr-tb;direction:ltr;white-space:pre;shape-inside:url(#rect8-4);display:inline;fill:#000000;fill-opacity:1;stroke:#000000;stroke-width:0.755906;stroke-dasharray:none"
       transform="matrix(0.26458333,0,0,0.26458333,60.97825,35.038897)"
       inkscape:label="text"><tspan
         x="95.419922"
         y="91.691406"
         id="tspan7">Circuit of the Americas
</tspan><tspan
         x="119.4668"
         y="106.69141"
         id="tspan8">Austin, Texas
</tspan><tspan
         x="100.48535"
         y="121.69141"
         id="tspan9">October 17-20, 2025</tspan></text>
    <path
       style="vector-effect:non-scaling-stroke;fill:none;fill-opacity:1;stroke:#000000;stroke-width:0.27852;stroke-dasharray:none;stroke-opacity:1;-inkscape-stroke:hairline"
       id="path3-6"
       sodipodi:type="arc"
       sodipodi:cx="100.80624"
       sodipodi:cy="121.70219"
       sodipodi:rx="25.4"
       sodipodi:ry="25.399988"
       sodipodi:start="0.017453293"
       sodipodi:end="0"
       sodipodi:arc-type="chord"
       d="M 126.20237,122.14548 A 25.4,25.399988 0 0 1 100.47376,147.1 25.4,25.399988 0 0 1 75.407204,121.48053 25.4,25.399988 0 0 1 100.91706,96.30244 a 25.4,25.399988 0 0 1 25.28918,25.39975 z"
       sodipodi:open="true"
       inkscape:label="outside cut" />
    <path
       style="fill:none;fill-opacity:1;stroke:#000000;stroke-width:0.268;stroke-dasharray:none;stroke-opacity:1"
       id="path3-8-1"
       sodipodi:type="arc"
       sodipodi:cx="100.80624"
       sodipodi:cy="121.70219"
       sodipodi:rx="24.477987"
       sodipodi:ry="24.477978"
       sodipodi:start="0.017453293"
       sodipodi:end="0"
       sodipodi:arc-type="chord"
       d="M 125.2805,122.12939 A 24.477987,24.477978 0 0 1 100.48583,146.17807 24.477987,24.477978 0 0 1 76.329181,121.48858 24.477987,24.477978 0 0 1 100.91304,97.224442 24.477987,24.477978 0 0 1 125.28422,121.70219 Z"
       sodipodi:open="true"
       inkscape:label="inside etching" />
    <path
       style="vector-effect:non-scaling-stroke;fill:none;fill-opacity:1;stroke:#000000;stroke-width:0.264583;stroke-dasharray:none;stroke-opacity:1;-inkscape-stroke:hairline"
       id="path4-8"
       sodipodi:type="arc"
       sodipodi:cx="100.80624"
       sodipodi:cy="104.29227"
       sodipodi:rx="3.175"
       sodipodi:ry="3.175"
       sodipodi:start="0.017453293"
       sodipodi:end="6.2831853"
       sodipodi:open="true"
       sodipodi:arc-type="chord"
       d="m 103.98075,104.34768 a 3.175,3.175 0 0 1 -3.21607,3.11931 3.175,3.175 0 0 1 -3.133323,-3.20243 3.175,3.175 0 0 1 3.188733,-3.14726 3.175,3.175 0 0 1 3.16115,3.17497 z"
       inkscape:label="hole" />
    <path
       d="m 78.93324,125.64031 c 1.30521,2.36742 2.61039,4.73479 3.9154,7.10205 1.47026,2.66681 2.94052,5.33354 4.41078,8.00036 0.065,0.11781 0.12668,0.23188 0.22599,0.32656 0.39425,0.3757 1.21655,0.25217 1.266,-0.37052 0.0524,-0.65846 0.10469,-1.31686 0.15703,-1.97533 0.0674,-0.84843 0.13482,-1.69682 0.2023,-2.54524 0.019,-0.23923 -0.008,-0.66092 0.20831,-0.78688 0.17508,-0.10193 0.45585,-0.11193 0.64969,-0.14681 1.09358,-0.19675 2.18797,-0.38924 3.28384,-0.57262 0.55237,-0.0925 1.10524,-0.18278 1.6594,-0.26331 0.31431,-0.0456 0.55498,-0.11491 0.80612,-0.32488 0.19893,-0.16622 0.34408,-0.3849 0.48786,-0.59762 0.10526,-0.15573 0.20336,-0.32655 0.33737,-0.46022 0.11219,-0.11189 0.22876,-0.13128 0.37842,-0.155 0.11488,-0.0183 -0.0596,-0.006 -0.009,-0.006 0.0313,-3e-5 0.0625,-1.1e-4 0.0937,-1.5e-4 0.43393,-8e-4 0.86782,-0.002 1.30171,-0.003 0.10955,-2.1e-4 0.2168,0.0109 0.32671,0.009 0.36117,-0.006 0.67014,-0.26753 0.90087,-0.51787 0.0668,-0.0724 0.11649,-0.15752 0.16277,-0.24381 -0.0698,0.1303 0.047,-0.0654 0.0649,-0.0931 0.10507,-0.16206 0.21008,-0.32399 0.31511,-0.486 0.1432,-0.22078 0.32019,-0.43258 0.52713,-0.59581 0.28624,-0.22581 -0.0472,-0.64293 -0.34398,-0.44254 -0.004,0.002 -0.007,0.005 -0.01,0.006 0.13216,0.12965 0.26442,0.2593 0.39664,0.38892 -0.0722,0.0823 0.0575,-0.0374 0.0594,-0.0388 0.076,-0.0578 0.15782,-0.10627 0.24159,-0.15183 0.202,-0.10983 0.42526,-0.166 0.6494,-0.20857 0.35083,-0.0666 0.67332,-0.0967 1.02835,-0.0452 0.53931,0.0784 0.89812,0.53754 1.23977,0.92107 0.2577,0.28922 0.50416,0.58844 0.76516,0.87469 0.16713,0.18325 0.34111,0.3741 0.54321,0.51943 0.23442,0.16865 0.54932,0.14198 0.81485,0.0794 0.34556,-0.0815 0.67698,-0.24359 1.00493,-0.37545 0.16289,-0.0656 0.32654,-0.12872 0.49235,-0.18676 0.31033,-0.10855 0.48314,-0.10846 0.76401,0.0822 0.29996,0.20375 0.57687,0.44877 0.86192,0.67241 0.29782,0.23357 0.58893,0.51401 0.94774,0.64623 0.67316,0.24812 1.41319,0.32097 2.11503,0.44899 0.68776,0.12555 1.38911,0.3109 2.08799,0.35737 0.32376,0.0216 0.61743,-0.0174 0.92085,-0.13909 0.0314,-0.0126 0.28242,-0.146 0.13493,-0.0669 0.0187,-0.0101 0.0375,-0.0202 0.0563,-0.0302 0.23479,-0.12586 0.46966,-0.25164 0.70456,-0.37728 0.95922,-0.51312 1.91933,-1.02458 2.88059,-1.53386 1.01032,-0.53527 2.02116,-1.06976 3.03872,-1.59125 0.42471,-0.21764 0.87295,-0.37508 0.78349,-1.00142 -0.0514,-0.36012 -0.41595,-0.53552 -0.74018,-0.56116 -2.20026,-0.17394 -4.3967,-0.41672 -6.58427,-0.70869 -3.39418,-0.45301 -6.75126,-1.11493 -10.07059,-1.9556 -2.27689,-0.57646 -4.50746,-1.30188 -6.75458,-1.98076 -0.74231,-0.22425 -1.48748,-0.43897 -2.23572,-0.64284 -0.32261,-0.0879 -0.80906,-0.32635 -1.14607,-0.19984 -0.2786,0.10462 -0.45612,0.44107 -0.33697,0.72708 0.12654,0.30377 0.5582,0.16631 0.53698,-0.14383 -5e-4,-0.018 -0.004,-0.0355 -0.0105,-0.0526 -0.18531,0.0245 -0.37048,0.0491 -0.55573,0.0737 0.26076,0.97987 0.54126,1.95054 0.72562,2.94831 0.0619,0.33503 0.11752,0.67117 0.16684,1.00822 0.042,0.28745 0.10585,0.59893 0.0705,0.88956 -0.0396,0.32736 -0.94952,-0.2148 -1.0522,-0.26348 -0.15427,-0.0732 -0.24868,-0.11749 -0.32922,-0.17565 -0.37602,-0.27155 -0.22704,-0.59449 -0.068,-0.93943 0.12682,-0.27512 0.27112,-0.56034 0.30444,-0.86546 0.0394,-0.36144 -0.0999,-0.65797 -0.18704,-0.99057 -0.14871,-0.56758 -0.79235,-0.97573 -1.33615,-1.13841 -0.43732,-0.13082 -0.81886,0.17513 -0.81754,0.6062 l 0.008,2.50763 c 0.002,0.44281 0.003,0.88557 0.005,1.32841 6.1e-4,0.18749 0.0372,0.42411 -0.0137,0.60588 -0.0426,0.15253 -0.17716,0.30485 -0.26728,0.43083 -0.18242,0.25475 -0.3649,0.47411 -0.60978,0.67164 -0.24527,0.19783 -0.56291,0.28461 -0.8594,0.37638 -0.36198,0.11202 -0.73664,0.19728 -1.11415,0.23444 -0.37938,0.0373 -0.76609,-0.35896 -1.06573,-0.54869 -0.37194,-0.23536 -0.41583,-0.58917 -0.5144,-0.97558 -0.2682,-1.05092 -0.52875,-2.10581 -0.89498,-3.12762 -0.16524,-0.46079 -0.33651,-0.91941 -0.50975,-1.37722 -0.0828,-0.21874 0.0265,0.1263 -0.0268,-0.0728 -0.0206,-0.0769 -0.0494,-0.14896 -0.083,-0.2212 -0.14816,-0.31837 -0.34409,-0.60921 -0.69161,-0.71684 -0.20823,-0.0645 -0.42568,-0.0502 -0.64045,-0.0483 -0.34551,0.003 -0.69107,0.005 -1.03659,0.008 -0.9875,0.008 -1.9749,0.0163 -2.96236,0.0245 -0.46192,0.004 -0.92374,0.007 -1.3857,0.0114 -0.3193,0.003 -0.31289,0.53625 0.002,0.55596 0.0171,0.002 0.0342,0.003 0.0514,0.003 0.25581,0.007 0.3886,-0.23549 0.25612,-0.45008 -0.17343,-0.28096 -0.80702,-0.0402 -0.98097,0.10977 -0.29191,0.2516 -0.25253,0.70413 -0.0577,0.99847 0.19969,0.30165 0.64078,-0.0446 0.44254,-0.34398 0.0243,0.0368 -0.0127,-0.0322 -0.0246,-0.0618 -0.0245,-0.061 -0.0228,-0.14465 0.0302,-0.1903 0.0741,-0.0639 0.25956,-0.0674 0.33403,-0.0627 -0.0621,-0.0354 -0.12429,-0.0707 -0.18638,-0.10612 1.1e-4,2.3e-4 2.2e-4,3.7e-4 3.2e-4,6.1e-4 0.0854,-0.15009 0.17079,-0.30005 0.25617,-0.45011 -0.0172,-2.8e-4 -0.0343,-9.2e-4 -0.0514,-0.003 7e-4,0.1853 0.001,0.37063 0.002,0.55596 1.5508,-0.0128 3.10159,-0.0256 4.65238,-0.0384 0.28985,-0.003 0.57966,-0.005 0.86954,-0.007 0.0182,-1.5e-4 0.15841,0.002 0.0692,-2e-4 0.33647,0.007 0.48296,0.27062 0.59092,0.55981 0.0276,0.0742 0.003,0.0409 0.0416,0.13617 0.0676,0.1683 -0.0246,-0.0719 0.0338,0.0829 0.0849,0.22483 0.16891,0.4499 0.25238,0.67521 0.18832,0.50816 0.38009,1.01648 0.53291,1.5367 0.25336,0.86187 0.50091,1.7388 0.68412,2.61828 0.10454,0.50166 0.54727,0.7944 0.94621,1.05942 0.22394,0.14878 0.46328,0.28884 0.71876,0.37517 0.29352,0.0993 0.60681,0.0302 0.90198,-0.0277 0.66818,-0.13153 1.37483,-0.31717 1.90127,-0.76612 0.35636,-0.30396 0.6397,-0.70997 0.86583,-1.11804 0.13124,-0.23689 0.0983,-0.5124 0.0975,-0.77329 -9.2e-4,-0.39507 -0.003,-0.7901 -0.004,-1.18522 -0.004,-0.9923 -0.006,-1.98463 -0.01,-2.97692 -0.0177,0.0681 -0.0355,0.13633 -0.0532,0.20445 0.15229,-0.21365 0.48007,0.0501 0.64776,0.15791 0.1573,0.10119 0.32695,0.18144 0.41545,0.35607 0.0502,0.0991 0.0625,0.2116 0.10607,0.31345 0.15298,0.35806 0.12846,0.67175 -0.0165,1.02111 -0.11556,0.27866 -0.26189,0.53865 -0.33597,0.83262 -0.13478,0.53482 0.24162,1.00517 0.70488,1.22508 0.31137,0.1478 0.62805,0.34282 0.95482,0.45198 0.23962,0.08 0.50581,0.0773 0.73039,-0.0436 0.29489,-0.15878 0.34954,-0.47946 0.34306,-0.78474 -0.0132,-0.6122 -0.15207,-1.23662 -0.26294,-1.83662 -0.17929,-0.97015 -0.45728,-1.91565 -0.71081,-2.86825 -0.0912,-0.34255 -0.64168,-0.27999 -0.55574,0.0736 0.006,0.0171 0.0101,0.0346 0.0105,0.0526 0.17902,-0.048 0.35797,-0.0959 0.537,-0.14393 0.011,0.0264 -0.004,0.014 0.0849,0.0289 0.17453,0.0292 0.34717,0.0909 0.51801,0.13681 0.32208,0.0867 0.64353,0.17602 0.96449,0.26683 0.56259,0.15927 1.1231,0.32568 1.68248,0.49572 1.04663,0.31822 2.08867,0.65113 3.1361,0.96692 2.87769,0.86758 5.80472,1.57161 8.75352,2.15113 3.06852,0.60313 6.18281,0.98517 9.29343,1.29369 0.71059,0.0704 1.42187,0.13658 2.13379,0.19264 0.0575,0.005 0.1057,0.0122 0.16161,0.0332 0.0893,0.0335 0.0977,0.15644 0.0522,0.22889 -0.0549,0.0874 0.20677,-0.097 0.008,0.003 -0.0989,0.0497 -0.1976,0.0996 -0.29616,0.14983 -0.45425,0.2313 -0.90626,0.467 -1.35789,0.70328 -1.7928,0.93792 -3.57793,1.89062 -5.36114,2.84657 -0.0348,0.0186 -0.0695,0.0373 -0.1043,0.056 -0.0546,0.0293 -0.14165,0.0725 -0.28491,0.12208 -0.18368,0.0635 -0.36305,0.0524 -0.55214,0.0398 -0.22768,-0.0152 -0.45071,-0.0665 -0.67499,-0.1074 -0.896,-0.16349 -1.79202,-0.32703 -2.68807,-0.49048 -0.0898,-0.0164 -0.17955,-0.0328 -0.26924,-0.0491 0.0887,0.0161 -0.018,-0.006 -0.0883,-0.0285 -0.12807,-0.0395 -0.28265,-0.0705 -0.39864,-0.13951 -0.32367,-0.19235 -0.61714,-0.46284 -0.91375,-0.69546 -0.30376,-0.23827 -0.59612,-0.49455 -0.93831,-0.67652 -0.48395,-0.25738 -1.02334,0.0101 -1.48494,0.19734 -0.27863,0.11301 -0.5559,0.23751 -0.84114,0.33309 -0.25558,0.0857 -0.42436,0.0867 -0.6203,-0.0898 -0.18925,-0.1703 -0.35659,-0.36884 -0.52266,-0.5615 -0.61511,-0.71351 -1.21296,-1.59418 -2.2073,-1.73857 -0.75883,-0.11022 -1.89167,0.075 -2.41905,0.6767 -0.21962,0.25052 0.14834,0.55657 0.39663,0.3889 0.004,-0.002 0.006,-0.005 0.01,-0.007 l -0.34397,-0.44254 c -0.37475,0.29563 -0.63064,0.70033 -0.88721,1.09593 -0.18914,0.29168 -0.4435,0.81421 -0.89001,0.71783 -0.1133,-0.0245 -0.25951,4.2e-4 -0.37472,6.7e-4 -0.25516,4.2e-4 -0.51037,8.9e-4 -0.76553,0.002 -0.41405,8e-4 -0.80783,-0.0101 -1.14473,0.27618 -0.34343,0.29179 -0.50223,0.74518 -0.82526,1.05779 -0.21205,0.20529 -0.48852,0.20406 -0.76326,0.24527 -0.28391,0.0425 -0.56747,0.0879 -0.85078,0.13376 -1.1651,0.189 -2.32762,0.39367 -3.48945,0.60118 -0.2663,0.0476 -0.5325,0.0954 -0.79865,0.1438 -0.5731,0.10417 -0.79745,0.44522 -0.88058,0.9918 -0.09,0.59218 -0.10439,1.20169 -0.15182,1.79805 -0.0723,0.9092 -0.14451,1.8184 -0.21677,2.72765 -0.0143,0.18017 0.026,0.60823 -0.30925,0.41581 -0.0901,-0.0516 -0.0905,-0.0871 -0.14638,-0.18873 -1.48679,-2.69671 -2.97359,-5.39343 -4.46044,-8.09032 -1.28517,-2.33119 -2.57048,-4.66233 -3.85589,-6.99371 -0.17278,-0.31768 -0.69284,-0.10591 -0.51848,0.20975 z"
       fill="#dd1f2c"
       id="path1-9"
       inkscape:label="circuit"
       style="fill:#000000;fill-opacity:1;stroke-width:0.0622783" />
    <text
       xml:space="preserve"
       id="text8-2"
       style="font-style:normal;font-variant:normal;font-weight:normal;font-stretch:normal;font-size:12px;font-family:Calibri;-inkscape-font-specification:Calibri;text-align:center;writing-mode:lr-tb;direction:ltr;white-space:pre;shape-inside:url(#rect8-6-8);display:inline;fill:#000000;fill-opacity:1;stroke:#000000;stroke-width:0.755906;stroke-dasharray:none"
       transform="matrix(0.26458333,0,0,0.26458333,60.97825,90.859849)"
       inkscape:label="text"><tspan
         x="95.419922"
         y="91.691406"
         id="tspan10">Circuit of the Americas
</tspan><tspan
         x="119.4668"
         y="106.69141"
         id="tspan11">Austin, Texas
</tspan><tspan
         x="100.48535"
         y="121.69141"
         id="tspan12">October 17-20, 2025</tspan></text>
  </g>
</svg>
